# Blender v2.81 (sub 16) OBJ File: ''
# www.blender.org
mtllib CornellBox-NoSphere.mtl
o CornellBox-Sphere
v 1.000000 0.000000 -1.040000
v -0.990000 0.000000 -1.040000
v -1.010000 -0.000000 0.990000
v 1.000000 -0.000000 0.990000
v 1.000000 1.590000 -1.040000
v 1.000000 1.590000 0.990000
v -1.020000 1.590000 0.990000
v -1.020000 1.590000 -1.040000
v 1.000000 1.590000 -1.040000
v -1.020000 1.590000 -1.040000
v -0.990000 0.000000 -1.040000
v 1.000000 0.000000 -1.040000
v 1.000000 1.590000 0.990000
v 1.000000 1.590000 -1.040000
v 1.000000 0.000000 -1.040000
v 1.000000 -0.000000 0.990000
v -1.020000 1.590000 -1.040000
v -1.020000 1.590000 0.990000
v -1.010000 -0.000000 0.990000
v -0.990000 0.000000 -1.040000
v 0.230000 1.580000 -0.220000
v 0.230000 1.580000 0.160000
v -0.240000 1.580000 0.160000
v -0.240000 1.580000 -0.220000
vt 0.000000 1.000000
vt 0.000000 1.000000
vt 0.000000 1.000000
vt 0.000000 1.000000
vt 0.000000 1.000000
vt 0.000000 1.000000
vt 0.000000 1.000000
vt 0.000000 1.000000
vt 0.000000 1.000000
vt 0.000000 1.000000
vt 0.000000 1.000000
vt 0.000000 1.000000
vt 0.000000 1.000000
vt 0.000000 1.000000
vt 0.000000 1.000000
vt 0.000000 1.000000
vt 0.000000 1.000000
vt 0.000000 1.000000
vt 0.000000 1.000000
vt 0.000000 1.000000
vt 0.000000 1.000000
vt 0.000000 1.000000
vt 0.000000 1.000000
vt 0.000000 1.000000
vn 0.0000 1.0000 0.0000
vn 0.0000 -1.0000 -0.0000
vn 0.0000 -0.0000 1.0000
vn -1.0000 0.0000 0.0000
vn 0.9999 0.0135 0.0057
vn 1.0000 0.0063 0.0000
vn 0.9999 0.0116 0.0042
vn 0.9998 0.0189 0.0098
usemtl floor.001
s 1
f 1/1/1 2/2/1 3/3/1
f 3/3/1 4/4/1 1/1/1
usemtl ceiling.001
f 5/5/2 6/6/2 7/7/2
f 7/7/2 8/8/2 5/5/2
usemtl backWall.001
f 9/9/3 10/10/3 11/11/3
f 11/11/3 12/12/3 9/9/3
usemtl rightWall.001
f 13/13/4 14/14/4 15/15/4
f 15/15/4 16/16/4 13/13/4
usemtl leftWall.001
f 17/17/5 18/18/6 19/19/7
f 19/19/7 20/20/8 17/17/5
usemtl light.001
f 21/21/2 22/22/2 23/23/2
f 23/23/2 24/24/2 21/21/2
